<?xml version="1.0" encoding="iso-8859-1"?>
<!-- Generator: Adobe Illustrator 19.0.0, SVG Export Plug-In . SVG Version: 6.00 Build 0)  -->
<svg version="1.1" id="Capa_1" xmlns="http://www.w3.org/2000/svg" xmlns:xlink="http://www.w3.org/1999/xlink" x="0px" y="0px"
	 viewBox="0 0 480 480" style="enable-background:new 0 0 480 480;" xml:space="preserve">
<g>
	<g>
		<rect x="328" y="96" width="16" height="16"/>
	</g>
</g>
<g>
	<g>
		<rect x="328" y="128" width="16" height="16"/>
	</g>
</g>
<g>
	<g>
		<rect x="296" y="128" width="16" height="16"/>
	</g>
</g>
<g>
	<g>
		<path d="M472,432h-24V296c0-13.232-10.768-24-24-24h-80v-40c0-13.232-10.768-24-24-24h-56c-4.408,0-8-3.584-8-8v-24h80
			c30.88,0,56-25.128,56-56s-25.12-56-56-56c-0.152,0-0.296,0-0.44,0C331.568,28.048,301,0,264,0
			c-25.04,0-47.752,12.728-60.88,33.656C199.48,32.552,195.76,32,192,32c-19.56,0-35.888,14.12-39.336,32.688
			C149.8,64.232,146.904,64,144,64c-30.88,0-56,25.128-56,56s25.12,56,56,56h56v64c0,4.416-3.592,8-8,8h-32
			c0-13.232-10.768-24-24-24H24c-13.232,0-24,10.768-24,24v208c0,13.232,10.768,24,24,24h112c13.232,0,24-10.768,24-24V264h32
			c13.232,0,24-10.768,24-24v-64h24v24c0,13.232,10.768,24,24,24h56c4.408,0,8,3.584,8,8v40h-96c-13.232,0-24,10.768-24,24v136h-24
			c-4.416,0-8,3.576-8,8c0,22.056,17.944,40,40,40h224c22.056,0,40-17.944,40-40C480,435.576,476.416,432,472,432z M144,456
			c0,4.416-3.592,8-8,8H24c-4.408,0-8-3.584-8-8v-16h128V456z M144,424H16V280h128V424z M144,264H16v-16c0-4.416,3.592-8,8-8h112
			c4.408,0,8,3.584,8,8V264z M144,160c-22.056,0-40-17.944-40-40c0-22.056,17.944-40,40-40c4.568,0,9.136,0.816,13.568,2.424
			c2.584,0.928,5.456,0.488,7.616-1.192c2.168-1.672,3.328-4.344,3.072-7.072l-0.168-1.368c-0.032-0.272-0.08-0.536-0.088-0.792
			c0-13.232,10.768-24,24-24c3.68,0,7.376,0.944,10.976,2.816c1.904,0.984,4.136,1.168,6.168,0.496
			c2.04-0.664,3.728-2.136,4.68-4.056C223.36,27.976,242.584,16,264,16c30.88,0,56,25.128,56,55.784
			c-0.016,0.192-0.04,0.752-0.04,0.944c0,2.36,1.04,4.592,2.84,6.112c1.8,1.528,4.176,2.176,6.504,1.776
			C331.728,80.2,333.92,80,336,80c22.056,0,40,17.944,40,40c0,22.056-17.944,40-40,40H144z M224,296c0-4.416,3.592-8,8-8h192
			c4.408,0,8,3.584,8,8v136H224V296z M440,464H216c-10.432,0-19.328-6.688-22.632-16H216h224h22.632
			C459.328,457.312,450.432,464,440,464z"/>
	</g>
</g>
<g>
	<g>
		<path d="M120,296H40c-4.416,0-8,3.576-8,8v32c0,4.424,3.584,8,8,8h80c4.416,0,8-3.576,8-8v-32C128,299.576,124.416,296,120,296z
			 M112,328H48v-16h64V328z"/>
	</g>
</g>
<g>
	<g>
		<path d="M328,304h-80c-4.416,0-8,3.576-8,8v96c0,4.424,3.584,8,8,8h80c4.416,0,8-3.576,8-8v-96C336,307.576,332.416,304,328,304z
			 M320,400h-64v-80h64V400z"/>
	</g>
</g>
<g>
	<g>
		<rect x="32" y="360" width="96" height="16"/>
	</g>
</g>
<g>
	<g>
		<rect x="352" y="304" width="64" height="16"/>
	</g>
</g>
<g>
	<g>
		<rect x="352" y="336" width="64" height="16"/>
	</g>
</g>
<g>
	<g>
		<rect x="352" y="368" width="64" height="16"/>
	</g>
</g>
<g>
	<g>
		<rect x="352" y="400" width="64" height="16"/>
	</g>
</g>
<g>
	<g>
		<rect x="32" y="392" width="96" height="16"/>
	</g>
</g>
<g>
</g>
<g>
</g>
<g>
</g>
<g>
</g>
<g>
</g>
<g>
</g>
<g>
</g>
<g>
</g>
<g>
</g>
<g>
</g>
<g>
</g>
<g>
</g>
<g>
</g>
<g>
</g>
<g>
</g>
</svg>
